<?xml version="1.0" encoding="utf-8"?>
<!DOCTYPE svg PUBLIC "-//W3C//DTD SVG 1.1//EN" "http://www.w3.org/Graphics/SVG/1.1/DTD/svg11.dtd">
<svg version="1.1" xmlns="http://www.w3.org/2000/svg" xmlns:xlink="http://www.w3.org/1999/xlink" x="0px" y="0px" width="800px"
	 height="800px" viewBox="0 0 800 800" enable-background="new 0 0 800 800" xml:space="preserve">
<g id="Layer_2" display="none">
	<rect x="-22" y="-12" display="inline" fill-rule="evenodd" clip-rule="evenodd" fill="#15FF49" width="835" height="830"/>
</g>
<g id="Layer_3" display="none">
</g>
<g id="Shape_1_1_" enable-background="new    ">
	<path fill-rule="evenodd" clip-rule="evenodd" fill="#FFFFFF" d="M19.073,400c0-210.461,170.613-381.073,381.072-381.073
		c210.461,0,381.073,170.612,381.073,381.073c0,210.46-170.612,381.072-381.073,381.072c-69.071,0-153.151-30.005-210.256-62.884
		c-7.581-4.364,1.893,0.513,2.111,8.387C193.328,774.568,58.107,768.127,53,764c-11.69-9.445,78.419-90.06,74.137-98.139
		C82.256,581.178,19.073,503.412,19.073,400z"/>
	<g id="Shape_1">
		<g>
			<path fill-rule="evenodd" clip-rule="evenodd" fill="#212121" d="M682.655,117.21C607.074,41.606,506.808,0,399.945,0
				s-207.13,41.606-282.711,117.21C-28.855,263.34-39,497.252,92.041,655.053c-12.85,25.878-33.479,55.983-64.083,71.036
				c-14.71,7.272-22.996,23.002-20.459,39.239c2.536,16.236,15.049,28.921,31.281,31.458c7.609,1.185,18.431,2.368,31.619,2.368
				c35.338,0,87.417-8.287,140.679-46.681C270.426,784.439,335.354,800,399.776,800c103.479,0,205.945-40.085,283.048-117.209
				C758.405,607.188,800,506.893,800,400S758.236,192.812,682.655,117.21z M650.36,650.486
				c-114.133,114.165-290.827,136.829-429.814,55.138c-9.131-5.412-20.46-3.722-27.73,3.552c-0.676,0.338-1.353,0.846-1.86,1.353
				c-45.822,35.519-90.798,42.96-120.558,42.96h-0.169c34.325-25.031,55.968-62.241,68.649-91.163
				c2.029-4.904,2.367-9.979,1.183-14.714c-0.507-4.567-2.367-9.134-5.579-12.854C10.711,494.884,17.136,281.775,149.361,149.514
				c138.143-138.182,362.857-138.182,500.831,0C788.503,287.695,788.503,512.305,650.36,650.486z M399.945,371.924
				c-15.502,0-28.068,12.57-28.068,28.076s12.566,28.076,28.068,28.076c15.501,0,28.067-12.57,28.067-28.076
				S415.446,371.924,399.945,371.924z M544.682,371.924c-15.502,0-28.067,12.57-28.067,28.076s12.565,28.076,28.067,28.076
				S572.75,415.506,572.75,400S560.184,371.924,544.682,371.924z M255.208,371.924c-15.501,0-28.067,12.57-28.067,28.076
				s12.566,28.076,28.067,28.076c15.502,0,28.068-12.57,28.068-28.076S270.71,371.924,255.208,371.924z"/>
		</g>
	</g>
</g>
</svg>
