<svg xmlns="http://www.w3.org/2000/svg" width="300" height="345" viewBox="0 0 300 345"><path fill="#262B33" d="M648.147 1372.208c0 2.75-1.948 6.125-4.33 7.5l-139.258 80.4c-2.381 1.375-6.278 1.375-8.66 0l-139.258-80.401c-2.381-1.375-4.33-4.75-4.33-7.5v-160.8c0-2.75 1.949-6.125 4.33-7.5l139.258-80.4c2.381-1.375 6.279-1.375 8.66 0l139.258 80.4c2.382 1.375 4.33 4.75 4.33 7.5v160.801z"/><path fill="#F2F2F2" d="M609.899 1350.125c0 2.75-1.948 6.125-4.33 7.5l-101.01 58.318c-2.381 1.375-6.279 1.375-8.66 0l-101.01-58.319c-2.381-1.375-4.33-4.75-4.33-7.5v-116.634c0-2.75 1.949-6.125 4.33-7.5l101.01-58.318c2.381-1.375 6.279-1.375 8.66 0l101.01 58.318c2.382 1.375 4.33 4.75 4.33 7.5v116.635z"/><path fill="#00A7E1" d="M571.796 1328.127c0 2.75-1.948 6.125-4.33 7.5l-62.906 36.318c-2.381 1.375-6.279 1.375-8.66 0l-62.906-36.319c-2.381-1.375-4.33-4.75-4.33-7.5v-72.637c0-2.75 1.949-6.125 4.33-7.5l62.906-36.319c2.381-1.375 6.279-1.375 8.66 0l62.906 36.319c2.382 1.375 4.33 4.75 4.33 7.5v72.638z"/><path fill="#51555C" d="M299.998 254.715c0 2.789-1.976 6.211-4.391 7.605l-141.217 81.532c-2.415 1.394-6.367 1.394-8.783 0l-141.216-81.533c-2.415-1.394-4.391-4.817-4.391-7.605v-163.063c0-2.789 1.976-6.211 4.391-7.605l141.216-81.532c2.415-1.394 6.368-1.394 8.783 0l141.217 81.532c2.415 1.394 4.391 4.817 4.391 7.605v163.064z"/><path fill="#F2F2F2" d="M261.211 232.321c0 2.789-1.976 6.211-4.391 7.605l-102.43 59.139c-2.415 1.394-6.368 1.394-8.783 0l-102.43-59.14c-2.415-1.395-4.391-4.817-4.391-7.605v-118.276c0-2.789 1.976-6.211 4.391-7.605l102.43-59.138c2.415-1.394 6.368-1.394 8.783 0l102.43 59.138c2.416 1.395 4.391 4.817 4.391 7.605v118.277z"/><path fill="#00A7E1" d="M222.572 210.013c0 2.789-1.976 6.211-4.391 7.605l-63.791 36.829c-2.415 1.394-6.368 1.394-8.783 0l-63.791-36.83c-2.415-1.394-4.391-4.817-4.391-7.605v-73.659c0-2.789 1.976-6.211 4.391-7.605l63.791-36.831c2.415-1.394 6.368-1.394 8.783 0l63.791 36.831c2.415 1.394 4.391 4.817 4.391 7.605v73.66z"/><path fill="#51555C" d="M934.234 1162.669h86v93h-86z"/></svg>