<?xml version="1.0" encoding="UTF-8"?>
<!DOCTYPE svg PUBLIC "-//W3C//DTD SVG 1.1//EN" "http://www.w3.org/Graphics/SVG/1.1/DTD/svg11.dtd">
<!-- Creator: CorelDRAW X7 -->
<svg xmlns="http://www.w3.org/2000/svg" xml:space="preserve" width="178.6mm" height="117.54mm" version="1.1" style="shape-rendering:geometricPrecision; text-rendering:geometricPrecision; image-rendering:optimizeQuality; fill-rule:evenodd; clip-rule:evenodd"
viewBox="0 0 17860 11754"
 xmlns:xlink="http://www.w3.org/1999/xlink">
 <defs>
  <style type="text/css">
   <![CDATA[
    .fil0 {fill:#2B2A29;fill-rule:nonzero}
    .fil1 {fill:#FEFEFE;fill-rule:nonzero}
    .fil2 {fill:#FFD300;fill-rule:nonzero}
   ]]>
  </style>
 </defs>
 <g id="Слой_x0020_1">
  <metadata id="CorelCorpID_0Corel-Layer"/>
  <g id="_1758526275856">
   <path class="fil0" d="M3971 11629c-82,82 -234,124 -458,124l-731 0c-222,0 -376,-39 -462,-120 -86,-80 -128,-200 -128,-361l0 -708c0,-161 42,-281 128,-362 86,-78 240,-120 462,-120l731 0c224,0 376,43 458,125 83,83 123,202 123,357l0 708c0,155 -40,274 -123,357zm-378 -901c0,-92 -18,-159 -57,-201 -38,-43 -123,-63 -254,-63l-281 0c-122,0 -204,22 -244,69 -41,45 -62,110 -62,195l0 381c0,84 21,148 62,195 40,46 122,69 244,69l281 0c131,0 215,-22 251,-62 36,-44 56,-110 60,-200l0 -383z"/>
   <path class="fil0" d="M6164 11629c-81,82 -234,124 -456,124l-732 0c-223,0 -375,-39 -462,-120 -86,-80 -128,-200 -128,-361l0 -708c0,-161 42,-281 128,-362 87,-78 239,-120 462,-120l732 0c222,0 375,43 456,125 83,83 124,202 124,357l0 164 -501 0c0,-92 -19,-159 -57,-201 -38,-43 -122,-63 -255,-63l-280 0c-122,0 -203,22 -245,69 -41,45 -61,110 -61,195l0 381c0,84 20,148 61,195 42,46 123,69 245,69l280 0c133,0 217,-22 255,-62 38,-44 57,-111 57,-202l501 0 0 163c0,155 -41,274 -124,357z"/>
   <polygon class="fil0" points="7082,11753 6583,11753 6580,11272 6580,10564 6583,10083 7082,10083 7082,10722 7979,10722 7979,10083 8482,10083 8482,10564 8482,11272 8482,11753 7979,11753 7979,11102 7082,11102 "/>
   <path class="fil0" d="M9417 11102l-142 0c2,88 23,154 64,202 42,46 122,69 245,69l280 0 812 0 0 380 -580 0 -733 0c-221,0 -374,-41 -460,-120 -86,-80 -129,-200 -129,-361l0 -708c0,-161 43,-281 129,-362 86,-78 239,-119 460,-119l733 0 580 0 0 381 -812 0 -280 0c-123,0 -203,22 -245,69 -41,45 -62,108 -64,189l142 0 1259 0 0 380 -1259 0z"/>
   <polygon class="fil0" points="14524,10464 13838,10464 13838,10082 14415,10082 15146,10082 15737,10082 15737,10464 15022,10464 15022,11753 14524,11753 "/>
   <path class="fil0" d="M13396 10383l-773 0 0 -306 -493 0 0 306 -792 0c0,0 -451,13 -451,524 0,510 463,513 463,513l780 0 0 331 493 0 0 -331 761 0c0,0 462,-3 462,-513 0,-511 -450,-524 -450,-524zm-265 705l-508 0 0 -353 504 0c0,0 174,-23 174,186 0,174 -170,167 -170,167zm-1682 -167c0,-209 173,-186 173,-186l505 0 0 353 -509 0c0,0 -169,7 -169,-167z"/>
   <path class="fil0" d="M1777 10207c-83,-82 -235,-124 -458,-124l-1319 0 0 1671 497 0 1 -577 821 0c223,0 375,-41 458,-123 82,-82 123,-202 123,-358l0 -132c0,-155 -41,-274 -123,-357zm-541 590l-738 0 0 -333 738 0c92,0 166,75 166,167 0,91 -74,166 -166,166z"/>
   <path class="fil0" d="M17860 11272l0 -133c0,-154 -42,-274 -124,-356 -82,-83 -233,-124 -458,-124l-820 0 -1 -576 -498 0 0 1670 1319 0c225,0 376,-41 458,-124 82,-83 124,-202 124,-357zm-497 -66c0,92 -75,166 -168,166l-737 0 0 -333 737 0c93,0 168,73 168,167z"/>
   <path class="fil1" d="M8016 0l0 730 -768 0 0 729 -776 0 0 747 -774 0 0 2485c0,0 1364,1246 1561,1426l0 2646 3349 0 0 -2632c193,-178 1549,-1443 1549,-1443l0 -2482 -769 0 0 -741 -780 0 0 -735 -779 0 0 -730 -1813 0z"/>
   <polygon class="fil2" points="8476,8188 7821,8188 7821,4911 8476,4911 "/>
   <polygon class="fil2" points="9256,8188 8600,8188 8600,4234 9256,4234 "/>
   <polygon class="fil2" points="9378,8188 10034,8188 10034,4911 9378,4911 "/>
   <polygon class="fil0" points="6919,5039 6262,4456 6262,2775 6919,2775 "/>
   <polygon class="fil0" points="7698,5771 7042,5125 7042,2032 7698,2032 "/>
   <polygon class="fil0" points="8476,4808 7821,4808 7821,1303 8476,1303 "/>
   <polygon class="fil0" points="9256,4090 8600,4090 8600,570 9256,570 "/>
   <polygon class="fil0" points="10936,5039 11593,4456 11593,2775 10936,2775 "/>
   <polygon class="fil0" points="9378,4808 10034,4808 10034,1303 9378,1303 "/>
   <polygon class="fil0" points="10156,5771 10815,5125 10815,2032 10156,2032 "/>
  </g>
 </g>
</svg>
